HIERARCHY
ROOT joint_Root
{
	OFFSET 0.0 0.0 0.0
	CHANNELS 6 Xposition Yposition Zposition Zrotation Xrotation Yrotation 
	JOINT Hips
	{
		OFFSET -0.726466 93.3139 -2.00062
		CHANNELS 6 Xposition Yposition Zposition Zrotation Xrotation Yrotation 
		JOINT Spine
		{
			OFFSET 15.7357 0.0 0.0
			CHANNELS 6 Xposition Yposition Zposition Zrotation Xrotation Yrotation 
			JOINT Chest
			{
				OFFSET 8.98455 -0.406207 0.0
				CHANNELS 6 Xposition Yposition Zposition Zrotation Xrotation Yrotation 
				JOINT Neck
				{
					OFFSET 16.3773 0.0 0.0
					CHANNELS 6 Xposition Yposition Zposition Zrotation Xrotation Yrotation 
					JOINT Head
					{
						OFFSET 6.45672 0.0 0.0
						CHANNELS 6 Xposition Yposition Zposition Zrotation Xrotation Yrotation 
						End Site
						{
							OFFSET 0.0 0.0 0.0
						}
					}
				}
				JOINT Shoulder_L
				{
					OFFSET 12.9942 -0.242716 4.98039
					CHANNELS 6 Xposition Yposition Zposition Zrotation Xrotation Yrotation 
					JOINT UpperArm_L
					{
						OFFSET 5.34809 0.0 0.0
						CHANNELS 6 Xposition Yposition Zposition Zrotation Xrotation Yrotation 
						JOINT LowerArm_L
						{
							OFFSET 24.3286 1.87007e-05 0.0
							CHANNELS 6 Xposition Yposition Zposition Zrotation Xrotation Yrotation 
							JOINT Hand_L
							{
								OFFSET 22.2916 0.0 0.0
								CHANNELS 6 Xposition Yposition Zposition Zrotation Xrotation Yrotation 
								End Site
								{
									OFFSET 0.0 0.0 0.0
								}
							}
						}
					}
				}
				JOINT Shoulder_R
				{
					OFFSET 12.9945 -0.242716 -4.98039
					CHANNELS 6 Xposition Yposition Zposition Zrotation Xrotation Yrotation 
					JOINT UpperArm_R
					{
						OFFSET -5.34813 0.0 0.0
						CHANNELS 6 Xposition Yposition Zposition Zrotation Xrotation Yrotation 
						JOINT LowerArm_R
						{
							OFFSET -24.3289 0.000322201 0.0
							CHANNELS 6 Xposition Yposition Zposition Zrotation Xrotation Yrotation 
							JOINT Hand_R
							{
								OFFSET -22.2915 -0.000108084 0.0
								CHANNELS 6 Xposition Yposition Zposition Zrotation Xrotation Yrotation 
								End Site
								{
									OFFSET 0.0 0.0 0.0
								}
							}
						}
					}
				}
			}
		}
		JOINT UpperLeg_L
		{
			OFFSET -2.19248 -6.46944 0.0
			CHANNELS 6 Xposition Yposition Zposition Zrotation Xrotation Yrotation 
			JOINT LowerLeg_L
			{
				OFFSET 39.0811 0.0 -1.23785e-05
				CHANNELS 6 Xposition Yposition Zposition Zrotation Xrotation Yrotation 
				JOINT Foot_L
				{
					OFFSET 40.9854 0.0 -1.26872e-05
					CHANNELS 6 Xposition Yposition Zposition Zrotation Xrotation Yrotation 
					JOINT Toes_L
					{
						OFFSET 11.7543 0.0 0.0
						CHANNELS 6 Xposition Yposition Zposition Zrotation Xrotation Yrotation 
						End Site
						{
							OFFSET 0.0 0.0 0.0
						}
					}
				}
			}
		}
		JOINT UpperLeg_R
		{
			OFFSET -2.19251 6.46944 0.0
			CHANNELS 6 Xposition Yposition Zposition Zrotation Xrotation Yrotation 
			JOINT LowerLeg_R
			{
				OFFSET -39.0811 -0.00228153 -0.0401928
				CHANNELS 6 Xposition Yposition Zposition Zrotation Xrotation Yrotation 
				JOINT Foot_R
				{
					OFFSET -40.9854 0.0 0.0
					CHANNELS 6 Xposition Yposition Zposition Zrotation Xrotation Yrotation 
					JOINT Toes_R
					{
						OFFSET -11.7543 0.0 0.0
						CHANNELS 6 Xposition Yposition Zposition Zrotation Xrotation Yrotation 
						End Site
						{
							OFFSET 0.0 0.0 0.0
						}
					}
				}
			}
		}
	}
}
MOTION
Frames:	4
Frame Time:	0.0333333
0.000000 0.000000 0.000000 0.000000 0.000000 -0.000000 -1.916680 92.098900 -3.278060 87.006100 -4.851290 4.587000 15.735700 0.000005 -0.000001 87.186600 86.402700 -87.583200 8.984550 -0.406207 -0.000000 -0.581113 -0.324176 -0.794318 16.377300 -0.000001 -0.000001 1.386210 -2.475910 1.822380 6.456720 -0.000001 -0.000000 1.097010 0.392426 -14.223900 12.994200 -0.242716 4.980390 -89.024100 -3.280960 -73.425400 5.348090 -0.000007 -0.000001 33.021100 76.789100 -82.282800 24.328600 0.000019 0.000005 11.379500 1.634300 -81.934600 22.291600 -0.000001 0.000005 39.479300 5.624140 -29.331700 12.994500 -0.242716 -4.980390 91.984400 -4.123080 -64.269900 -5.348130 -0.000001 -0.000004 -72.954200 -52.048700 -112.806000 -24.328900 0.000322 -0.000009 -0.733189 -0.387252 -62.115100 -22.291500 -0.000108 -0.000004 17.041800 5.473500 -5.501590 -2.192480 -6.469440 -0.000000 -167.379000 -16.576800 -1.323150 39.081100 -0.000007 -0.000012 -0.183595 0.460995 21.715600 40.985400 -0.000006 -0.000013 -6.552990 2.079850 -63.343800 11.754300 -0.000000 0.000003 -0.000032 -0.000379 -16.592300 -2.192510 6.469440 -0.000001 176.594000 16.732200 178.329000 -39.081100 -0.002282 -0.040193 -0.000616 0.010445 20.649800 -40.985400 0.000008 0.000006 -0.596108 3.063760 -63.132800 -11.754300 -0.000006 -0.000006 -0.009682 -0.101246 -20.697800
0.000000 0.000000 0.000000 0.000000 0.000000 -0.000000 -1.947110 92.097300 -3.223480 87.012400 -4.736500 4.572560 15.735700 0.000005 -0.000001 87.148900 86.398500 -87.552600 8.984550 -0.406207 -0.000000 -0.572982 -0.328823 -0.808634 16.377300 -0.000001 -0.000001 1.486680 -2.477290 1.783820 6.456720 -0.000001 -0.000000 1.250210 0.309418 -14.200300 12.994200 -0.242716 4.980390 -89.024000 -3.281760 -73.427400 5.348090 -0.000007 -0.000001 33.059500 76.800600 -82.305500 24.328600 0.000019 0.000005 11.366000 1.631660 -81.937800 22.291600 -0.000001 0.000005 39.560400 5.623740 -29.360000 12.994500 -0.242716 -4.980390 91.987400 -4.123570 -64.239700 -5.348130 -0.000001 -0.000004 -73.053300 -52.043600 -112.822000 -24.328900 0.000322 -0.000009 -0.752877 -0.395409 -62.249900 -22.291500 -0.000108 -0.000004 17.054100 5.472060 -5.447660 -2.192480 -6.469440 -0.000000 -167.372000 -16.547000 -1.312980 39.081100 -0.000007 -0.000012 -0.183956 0.462636 21.684200 40.985400 -0.000006 -0.000013 -6.566210 2.122780 -63.343500 11.754300 -0.000000 0.000003 -0.000029 -0.000351 -16.591300 -2.192510 6.469440 -0.000001 176.585000 16.746200 178.377000 -39.081100 -0.002282 -0.040193 -0.001956 0.014010 20.635000 -40.985400 0.000008 0.000006 -0.606467 3.014740 -63.180900 -11.754300 -0.000006 -0.000006 -0.009153 -0.097194 -20.532100
0.000000 0.000000 0.000000 0.000000 0.000000 -0.000000 -1.976660 92.089600 -3.159310 87.011300 -4.661590 4.577970 15.735700 0.000005 -0.000001 87.147300 86.377100 -87.557800 8.984550 -0.406207 -0.000000 -0.530348 -0.330823 -0.822156 16.377300 -0.000001 -0.000001 1.518590 -2.489920 1.780250 6.456720 -0.000001 -0.000000 1.395920 0.236961 -14.159600 12.994200 -0.242716 4.980390 -89.022200 -3.281420 -73.396300 5.348090 -0.000007 -0.000001 32.677000 76.820700 -81.907600 24.328600 0.000019 0.000005 11.288500 1.614680 -81.965100 22.291600 -0.000001 0.000005 39.524900 5.622750 -29.430100 12.994500 -0.242716 -4.980390 91.991300 -4.128120 -64.219600 -5.348130 -0.000001 -0.000004 -73.149100 -52.055100 -112.804000 -24.328900 0.000322 -0.000009 -0.814941 -0.425531 -62.390000 -22.291500 -0.000108 -0.000004 17.114200 5.471950 -5.443510 -2.192480 -6.469440 -0.000000 -167.347000 -16.494400 -1.287740 39.081100 -0.000007 -0.000012 -0.183709 0.461841 21.691700 40.985400 -0.000006 -0.000013 -6.583190 2.175390 -63.374900 11.754300 -0.000000 0.000003 -0.000038 -0.000443 -16.594800 -2.192510 6.469440 -0.000001 176.588000 16.805200 178.418000 -39.081100 -0.002282 -0.040193 -0.002516 0.015462 20.679600 -40.985400 0.000008 0.000006 -0.589910 2.958310 -63.258300 -11.754300 -0.000006 -0.000006 -0.009743 -0.101708 -20.716700
0.000000 0.000000 0.000000 0.000000 0.000000 -0.000000 -1.996590 92.092000 -3.108510 87.015800 -4.573720 4.541300 15.735700 0.000005 -0.000001 87.077400 86.376200 -87.499100 8.984550 -0.406207 -0.000000 -0.529063 -0.338928 -0.844610 16.377300 -0.000001 -0.000001 1.413320 -2.502570 1.752150 6.456720 -0.000001 -0.000000 1.557250 0.151725 -14.013300 12.994200 -0.242716 4.980390 -89.028100 -3.263310 -73.405300 5.348090 -0.000007 -0.000001 32.024700 76.931500 -81.198000 24.328600 0.000019 0.000005 11.535300 1.632340 -82.054500 22.291600 -0.000001 0.000005 39.445700 5.624940 -29.275100 12.994500 -0.242716 -4.980390 91.996000 -4.140150 -64.231700 -5.348130 -0.000001 -0.000004 -73.023900 -52.175100 -112.554000 -24.328900 0.000322 -0.000009 -0.825610 -0.428470 -62.534300 -22.291500 -0.000108 -0.000004 17.205600 5.468410 -5.310950 -2.192480 -6.469440 -0.000000 -167.339000 -16.440500 -1.267070 39.081100 -0.000007 -0.000012 -0.184489 0.465612 21.615200 40.985400 -0.000006 -0.000013 -6.601770 2.227580 -63.364100 11.754300 -0.000000 0.000003 -0.000036 -0.000429 -16.594300 -2.192510 6.469440 -0.000001 176.593000 16.884200 178.438000 -39.081100 -0.002282 -0.040193 -0.001413 0.012550 20.666000 -40.985400 0.000008 0.000006 -0.491893 2.951790 -63.308500 -11.754300 -0.000006 -0.000006 -0.009460 -0.099561 -20.628900
